# xmcd
#
# Track frame offsets:
#	150
#	16177
#	41815
#	57742
#	77132
#	94647
#	116357
#	142530
#	159335
#	178032
#
# Disc length: 2635 seconds
#
# Revision: 9
# Processed by: cddbd v1.5.2PL0 Copyright (c) Steve Scherf et al.
# Submitted via: audiograbber 1.83.01
#
DISCID=740a490a
DTITLE=Spanish Harlem Orchestra - Un Gran Día En El Barrio
DYEAR=2002
DGENRE=Salsa
TTITLE0=Mama Güela
TTITLE1=Obsesión
TTITLE2=Tambori
TTITLE3=Aprende A Querer
TTITLE4=La Música Es Mi Vida
TTITLE5=La Banda
TTITLE6=Pa' Gozar
TTITLE7=Somos Iguales
TTITLE8=Vale Mas, Un Guaguanco
TTITLE9=Pueblo Latino
EXTD=www.RapMusicGuide.com\n
EXTT0=
EXTT1=
EXTT2=
EXTT3=
EXTT4=
EXTT5=
EXTT6=
EXTT7=
EXTT8=
EXTT9=
PLAYORDER=
